<?xml version="1.0" standalone="no"?>
<!DOCTYPE svg PUBLIC "-//W3C//DTD SVG 20010904//EN"
 "http://www.w3.org/TR/2001/REC-SVG-20010904/DTD/svg10.dtd">
<svg version="1.0" xmlns="http://www.w3.org/2000/svg"
 width="900.000000pt" height="900.000000pt" viewBox="0 0 900.000000 900.000000"
 preserveAspectRatio="xMidYMid meet">
<metadata>
Created by potrace 1.14, written by Peter Selinger 2001-2017
</metadata>
<g transform="translate(0.000000,900.000000) scale(0.100000,-0.100000)"
fill="#000000" stroke="none">
<path d="M0 4500 l0 -4500 4500 0 4500 0 0 4500 0 4500 -4500 0 -4500 0 0
-4500z m7178 2734 l22 -15 0 -753 c0 -689 -1 -755 -17 -767 -12 -11 -74 -15
-277 -17 -251 -3 -286 -7 -286 -34 0 -9 -56 -127 -88 -183 -6 -11 -17 -33 -25
-50 -7 -16 -18 -39 -25 -50 -6 -11 -28 -56 -50 -100 -21 -44 -44 -89 -50 -100
-6 -11 -28 -56 -50 -100 -21 -44 -44 -89 -50 -100 -6 -11 -62 -124 -125 -251
-63 -127 -120 -239 -125 -250 -6 -10 -30 -57 -53 -104 -23 -47 -47 -96 -54
-110 -7 -14 -41 -81 -75 -150 -33 -69 -65 -132 -70 -140 -5 -8 -93 -186 -197
-395 -104 -209 -197 -391 -205 -405 -9 -14 -20 -38 -24 -53 -7 -30 -47 -63
-63 -52 -6 3 -21 27 -34 53 -13 26 -58 112 -100 192 -42 80 -87 165 -100 190
-13 25 -46 86 -72 135 -27 50 -71 133 -98 185 -27 52 -75 145 -108 205 -32 61
-66 126 -75 145 -9 19 -22 42 -29 50 -7 8 -16 26 -20 40 -6 20 -45 92 -85 160
-5 8 -15 29 -23 45 -7 17 -37 74 -66 127 -116 218 -152 287 -197 373 -26 50
-62 117 -80 150 -34 61 -37 68 -61 120 -7 17 -26 53 -42 80 -15 28 -49 91 -75
140 -26 50 -73 140 -105 200 -32 61 -76 145 -98 188 -23 43 -46 84 -53 92 -6
8 -10 24 -8 37 3 23 4 23 172 26 186 3 207 -3 220 -54 4 -15 15 -39 25 -53 10
-14 22 -37 26 -51 4 -14 16 -36 25 -50 10 -14 68 -124 130 -245 62 -121 148
-287 191 -370 43 -82 90 -172 104 -200 14 -27 29 -57 34 -65 5 -8 29 -55 54
-105 65 -133 238 -468 247 -480 7 -9 184 -351 263 -508 16 -32 35 -61 43 -64
20 -8 52 23 59 58 4 15 14 38 24 51 10 13 22 34 26 48 4 14 16 37 26 52 11 14
19 29 19 32 0 12 81 175 90 181 4 3 11 18 15 35 3 16 14 39 24 52 9 13 32 57
50 98 18 41 62 134 96 205 135 278 185 385 191 410 3 14 10 27 14 30 8 5 33
54 109 216 17 36 31 69 31 73 0 4 9 19 20 33 11 14 20 33 20 41 0 8 22 61 49
116 89 181 151 316 157 341 3 13 12 29 20 36 8 6 19 32 25 56 21 80 30 83 276
83 129 0 222 4 234 10 18 10 19 26 19 463 0 339 -3 456 -12 465 -9 9 -560 12
-2419 12 -2186 0 -2407 -1 -2413 -16 -3 -9 -6 -592 -6 -1297 0 -706 -4 -1288
-9 -1296 -13 -20 -269 -20 -282 0 -14 23 -12 2892 3 2907 9 9 624 12 2708 12
2423 0 2698 -2 2718 -16z m-4514 -1265 c14 -11 26 -26 26 -32 0 -7 10 -30 21
-52 12 -22 28 -57 36 -79 7 -22 20 -47 27 -56 7 -8 19 -32 25 -52 7 -20 18
-42 26 -48 7 -6 17 -24 20 -40 4 -16 14 -39 24 -52 10 -13 23 -40 30 -60 7
-20 18 -41 26 -48 7 -6 16 -23 20 -38 3 -15 58 -133 122 -262 63 -129 164
-334 224 -455 59 -121 111 -232 115 -248 3 -15 10 -30 15 -32 4 -3 26 -45 49
-93 23 -48 46 -94 51 -102 5 -8 16 -31 24 -50 9 -19 20 -42 25 -50 6 -8 15
-26 21 -40 28 -66 118 -253 148 -307 5 -10 28 -56 51 -103 23 -47 45 -89 51
-94 5 -6 9 -17 9 -24 0 -8 16 -48 35 -88 19 -40 35 -86 35 -103 0 -18 -25 -81
-60 -149 -33 -65 -60 -124 -60 -130 0 -7 -9 -21 -20 -32 -20 -20 -33 -20 -870
-20 -829 0 -850 0 -860 -19 -6 -13 -10 -178 -10 -469 0 -367 2 -452 14 -461
19 -16 4803 -16 4823 0 11 10 13 231 13 1299 0 1185 1 1289 17 1301 12 10 49
14 141 13 109 -1 127 -3 139 -19 11 -16 13 -269 13 -1451 l0 -1433 -22 -15
c-20 -15 -292 -16 -2717 -16 -1967 0 -2698 3 -2708 11 -20 17 -19 1541 1 1558
10 8 253 11 907 11 492 0 900 0 907 0 6 0 12 8 12 18 0 12 -312 647 -370 752
-5 8 -94 186 -198 395 -104 209 -205 408 -225 442 -19 34 -39 72 -42 85 -4 13
-16 35 -26 50 -11 14 -19 29 -19 33 0 7 -62 134 -88 180 -6 11 -29 58 -52 104
-22 47 -45 90 -49 95 -5 6 -12 22 -16 36 -4 14 -15 36 -25 50 -10 14 -21 36
-25 50 -4 14 -15 36 -24 50 -9 14 -34 63 -56 110 -22 47 -48 97 -57 112 -21
30 -24 74 -5 81 6 3 85 6 173 6 149 1 163 -1 188 -20z"/>
</g>
</svg>
